<svg width="115" height="22" viewBox="0 0 115 22" fill="none" xmlns="http://www.w3.org/2000/svg">
<path d="M47.5803 15.7726L50.7768 21.45H111.577L112.292 15.7726H47.5803Z" fill="url(#paint0_radial_3_2899)"/>
<path d="M83.0944 7.23022L83.093 7.23842L83.0944 7.23022Z" fill="#BD0013"/>
<path d="M11.3242 14.3531L12.4006 6.85961C12.4913 6.23303 12.2571 5.70051 11.3242 5.70051C10.9166 5.70051 10.6177 5.75768 10.3725 5.83344L9.14874 14.3531H5.45703L6.84659 4.69235C8.0029 4.21682 9.67806 3.91254 11.6208 3.91254C15.1562 3.91254 16.3296 5.20634 16.0347 7.25925L15.0154 14.3531H11.3242" fill="#231F20"/>
<path d="M107.585 1.53931L107.383 2.87944H111.55C112.099 2.87944 112.54 2.34675 112.656 1.53931H107.585ZM109.979 3.88951C108.035 3.88951 106.361 4.19118 105.204 4.6685L104.638 8.5965L104.624 8.6031L104.301 10.9533C104.012 12.9551 105.131 14.2312 108.461 14.2937V14.3003H112.508L112.582 13.8184C112.654 13.3414 112.477 12.9602 111.901 12.9602H108.947C108.015 12.9602 107.778 12.4249 107.868 11.7983L107.996 10.9335H109.149V10.9137C112.536 10.8717 114.038 9.60661 114.335 7.60625L114.396 7.23655H114.376L114.396 7.22995C114.686 5.18098 113.509 3.8895 109.979 3.8895L109.979 3.88951ZM109.682 5.67856C110.615 5.67856 110.851 6.2129 110.761 6.84046L110.707 7.22335H110.687L110.572 7.98915C110.479 8.61383 110.086 9.14101 109.149 9.13784H108.246L108.293 8.77475H108.3L108.731 5.81059C108.975 5.73404 109.274 5.67856 109.682 5.67856V5.67856Z" fill="#EE1D23"/>
<path d="M82.9287 10.9937H82.9297V10.986L82.9287 10.9937Z" fill="black"/>
<path d="M4.63968 8.62294L4.67421 8.37385L5.82879 0.549988H2.13703L0.854588 9.11342L0.872608 9.14598L0.605265 11.0969C0.34758 12.8867 1.21316 14.0961 3.78195 14.3766L4.63968 8.62294" fill="#231F20"/>
<path d="M98.9053 3.91256C98.5618 3.91256 98.2259 3.92255 97.8997 3.94064L98.3833 0.549988C95.7355 0.831511 94.5146 2.03737 94.2503 3.82777L93.9174 6.17832L92.7415 14.3531H96.4328L97.6584 5.83347C97.9027 5.75771 98.2008 5.70054 98.6098 5.70054C99.5429 5.70054 99.7766 6.23305 99.6861 6.85963L98.6088 14.3531H102.301L103.32 7.25928C103.616 5.20636 102.441 3.91256 98.9053 3.91256Z" fill="#EE1D23"/>
<path d="M79.4593 6.83994L79.4072 7.2251H79.3872L79.2702 7.98961C79.1787 8.61473 78.786 9.14186 77.8509 9.13944H76.9413L76.9945 8.77893H77.0011L77.4311 5.81377C77.6755 5.73701 77.9751 5.6796 78.3826 5.6796C79.3162 5.6796 79.5498 6.21238 79.4593 6.83994H79.4593ZM83.0351 7.60465L83.0929 7.23905H83.072L83.0945 7.23004C83.3844 5.18056 82.209 3.89233 78.6787 3.89233C76.7364 3.89233 75.0619 4.19609 73.9044 4.67197L73.9013 4.69375H73.8911L72.502 14.353H76.1933L76.6878 10.9191H77.6341L77.6285 10.921L79.7022 14.3529H83.3931L80.9589 10.3501C82.2115 9.78846 82.8527 8.83513 83.0351 7.6046" fill="#EE1D23"/>
<path d="M30.4238 6.83907L30.3711 7.22352H30.3519L30.2358 7.98823C30.1412 8.61291 29.7512 9.142 28.8155 9.13883H27.9081L27.9593 8.77787H27.9658L28.3959 5.81245C28.6391 5.7359 28.9391 5.67917 29.3463 5.67917C30.2787 5.67917 30.5132 6.21151 30.4238 6.83907H30.4238ZM29.6421 3.89154C27.7002 3.89154 26.0248 4.19433 24.8684 4.67165L24.3 8.59823L24.2895 8.60166L23.9657 10.9544C23.6782 12.9562 24.7931 14.231 28.1231 14.2935L28.1229 14.3004H32.1701L32.2433 13.8243V13.8213C32.3169 13.3443 32.1404 12.9601 31.563 12.9601H28.6122C27.6795 12.9601 27.4451 12.4268 27.536 11.8003L27.6575 10.9302H28.8156V10.9136C32.2006 10.8716 33.7019 9.6044 33.9987 7.60404L34.0569 7.23868H34.037L34.058 7.22866C34.348 5.17969 33.1727 3.89154 29.6422 3.89154" fill="#231F20"/>
<path d="M22.9242 13.8213C22.9966 13.3443 22.8213 13.0119 22.2429 13.0119H21.812C20.8791 13.0119 20.6447 12.4811 20.7343 11.8526L21.5152 6.38426L21.5254 6.31296L21.5778 5.95201H22.5665C22.5901 5.94245 22.6194 5.93733 22.6581 5.93733C23.2068 5.93733 23.6464 5.40354 23.7627 4.5969H21.7706L22.348 0.549988C19.7005 0.831511 18.4798 2.03737 18.2149 3.82769L17.9026 5.84636L17.8999 5.85011L17.8732 6.0434L17.8523 6.17832L17.8531 6.17941L17.1653 11.0071C16.8777 13.0091 17.9884 14.2887 21.3225 14.3503V14.3532H22.8469L22.9241 13.8234V13.8213" fill="#231F20"/>
<path d="M57.0432 3.91254C55.8181 3.91254 54.6984 4.03401 53.7495 4.24201C53.0921 4.02764 52.2505 3.91254 51.199 3.91254C49.2568 3.91254 47.581 4.21682 46.4246 4.69235L45.4036 11.7919L46.9017 14.3531H48.7266L49.9513 5.83344C50.1954 5.75768 50.4951 5.70051 50.904 5.70051C51.6973 5.70051 51.9836 6.08787 51.9964 6.5896L50.8795 14.3531H54.5942L55.6142 7.25925C55.6346 7.11061 55.6479 6.96811 55.6525 6.82737L55.7956 5.83344C56.04 5.75768 56.3391 5.70051 56.7467 5.70051C57.6797 5.70051 57.9133 6.23303 57.8239 6.85961L56.7467 14.3531H60.439L61.4595 7.25925C61.7535 5.20634 60.5796 3.91254 57.0432 3.91254" fill="#EE1D23"/>
<path d="M41.1717 6.84008L41.119 7.22524H41.1005L40.9835 7.98974C40.8904 8.61487 40.4992 9.142 39.5634 9.13957H38.6548L38.7065 8.77907H38.714L39.1439 5.81391C39.3885 5.73714 39.6866 5.67974 40.095 5.67974C41.0279 5.67974 41.2626 6.21252 41.1717 6.84008H41.1717ZM42.6708 10.3503C43.9225 9.78865 44.5646 8.83531 44.7471 7.60479L44.8047 7.23918H44.7842L44.8063 7.23017L44.8048 7.23918C45.0995 5.1858 43.9267 3.89246 40.3908 3.89246C38.4475 3.89246 36.7727 4.19621 35.6156 4.67209L35.6138 4.69387H35.6021L34.2148 14.3531H37.9055L38.3989 10.9192H39.3467L39.3417 10.9211L46.3178 20.2038C46.7761 20.8128 47.3535 21.2661 48.095 21.2661H49.0813L42.671 10.3503" fill="#231F20"/>
<path d="M91.8438 13.0149L91.9302 12.3961C91.0406 12.5955 90.0017 12.7182 88.861 12.7363C88.7721 12.7427 88.6759 12.7461 88.5742 12.7461C87.6427 12.7461 87.4085 12.2133 87.4975 11.5857L87.8012 9.36785L87.8911 8.73589L88.2199 6.51828C88.3083 5.89064 88.6943 5.35696 89.6279 5.35696C89.7296 5.35696 89.8217 5.3611 89.9116 5.36766C91.1275 5.38631 92.08 5.48206 92.8735 5.68148L92.9619 5.04386V5.042C93.036 4.51244 93.0928 4.08011 92.3551 3.94568C91.6382 3.82814 90.8028 3.77197 89.8094 3.77197C86.2791 3.77197 84.7376 5.0611 84.4457 7.10907L84.458 7.11572L84.4441 7.11908L83.8925 10.9944H83.8936C83.6032 13.0421 84.7786 14.332 88.3074 14.332C89.3095 14.332 90.237 14.2495 91.0611 14.1067C91.4599 14.0124 91.7319 13.8369 91.8439 13.0148" fill="#EE1D23"/>
<path d="M68.0426 9.75051L67.6131 12.7157C67.3678 12.793 67.0686 12.8497 66.6617 12.8497C65.7286 12.8497 65.4934 12.3174 65.5839 11.6898L65.6371 11.3039H65.6565L65.7741 10.5397C65.8666 9.916 66.2578 9.38591 67.1929 9.39006H68.0994L68.0483 9.75051H68.0426ZM67.9215 3.92867L67.923 3.92255H64.7736C64.2255 3.92255 63.7853 4.45535 63.6698 5.26306H67.4317C68.3657 5.26306 68.601 5.83051 68.5105 6.45957L68.3489 7.60972H67.1219V7.61629C63.7863 7.6759 62.3042 8.93819 62.0087 10.9236L61.9519 11.2903C61.9513 11.2936 61.9508 11.2969 61.9504 11.3002C61.6596 13.3482 62.8344 14.6366 66.3653 14.6366C68.3081 14.6366 69.983 14.3326 71.14 13.8575L71.707 9.93016L71.7193 9.92678L72.0777 7.30546C72.3666 5.30391 71.2515 3.9925 67.9216 3.92868" fill="#EE1D23"/>
<defs>
<radialGradient id="paint0_radial_3_2899" cx="0" cy="0" r="1" gradientUnits="userSpaceOnUse" gradientTransform="translate(104.6 18.6113) scale(50.8523 2.61237)">
<stop stop-color="#6B6B6D"/>
<stop offset="1" stop-color="#231F20"/>
</radialGradient>
</defs>
</svg>
