<svg width="276" height="50" viewBox="0 0 276 50" fill="none" xmlns="http://www.w3.org/2000/svg">
<g clip-path="url(#clip0_3_3792)">
<path d="M71.936 31.7432L76.7168 40.2594H167.653L168.722 31.7432H71.936Z" fill="url(#paint0_radial_3_3792)"/>
<path d="M125.052 18.9297L125.05 18.9427L125.052 18.9297Z" fill="#BD0013"/>
<path d="M17.7093 29.6141L19.3193 18.3738C19.4549 17.434 19.1046 16.6352 17.7093 16.6352C17.0996 16.6352 16.6527 16.7209 16.286 16.8346L14.4556 29.6141H8.93408L11.0124 15.1229C12.7418 14.4096 15.2473 13.9532 18.1529 13.9532C23.4407 13.9532 25.1956 15.8939 24.7546 18.9733L23.23 29.6141H17.7093Z" fill="#231F20"/>
<path d="M161.682 10.3934L161.379 12.4036H167.612C168.433 12.4036 169.093 11.6045 169.266 10.3934H161.682ZM165.262 13.9187C162.355 13.9187 159.852 14.3712 158.121 15.0872L157.274 20.9792L157.254 20.9891L156.77 24.5144C156.338 27.517 158.012 29.4312 162.993 29.525V29.5349H169.045L169.156 28.8121C169.264 28.0965 168.999 27.5247 168.137 27.5247H163.719C162.325 27.5247 161.971 26.7217 162.105 25.7819L162.297 24.4846H164.022V24.4549C169.087 24.3919 171.333 22.4943 171.778 19.4938L171.869 18.9392H171.838L171.869 18.9293C172.303 15.8559 170.542 13.9187 165.262 13.9187L165.262 13.9187ZM164.819 16.6023C166.214 16.6023 166.567 17.4038 166.432 18.3451L166.352 18.9194H166.321L166.15 20.0681C166.011 21.0052 165.423 21.7959 164.022 21.7912H162.67L162.741 21.2465H162.751L163.396 16.8003C163.76 16.6855 164.208 16.6023 164.819 16.6023Z" fill="#EE1D23"/>
<path d="M124.805 24.5757H124.806V24.5634L124.805 24.5757Z" fill="black"/>
<path d="M7.71145 21.0188L7.76309 20.6452L9.48994 8.90936H3.96835L2.05026 21.7545L2.07721 21.8034L1.67736 24.7298C1.29195 27.4145 2.58656 29.2285 6.42858 29.6493L7.71145 21.0188Z" fill="#231F20"/>
<path d="M148.7 13.9532C148.187 13.9532 147.684 13.9682 147.196 13.9953L147.92 8.90936C143.959 9.33165 142.133 11.1404 141.738 13.826L141.24 17.3519L139.481 29.6141H145.002L146.835 16.8346C147.201 16.7209 147.647 16.6352 148.258 16.6352C149.654 16.6352 150.004 17.434 149.868 18.3738L148.257 29.6141H153.779L155.304 18.9733C155.745 15.8939 153.988 13.9532 148.7 13.9532Z" fill="#EE1D23"/>
<path d="M119.616 18.3443L119.538 18.9221H119.508L119.333 20.0688C119.196 21.0065 118.609 21.7972 117.21 21.7936H115.85L115.929 21.2528H115.939L116.582 16.8051C116.948 16.6899 117.396 16.6038 118.005 16.6038C119.402 16.6038 119.751 17.403 119.616 18.3443H119.616ZM124.964 19.4914L125.05 18.943H125.019L125.053 18.9295C125.486 15.8553 123.728 13.9229 118.448 13.9229C115.543 13.9229 113.039 14.3786 111.308 15.0924L111.303 15.125H111.288L109.21 29.6139H114.731L115.47 24.4631H116.886L116.877 24.4659L119.979 29.6138H125.499L121.859 23.6096C123.732 22.7671 124.691 21.3371 124.964 19.4913" fill="#EE1D23"/>
<path d="M46.2752 18.343L46.1963 18.9197H46.1676L45.994 20.0668C45.8524 21.0038 45.2692 21.7974 43.8697 21.7927H42.5125L42.5891 21.2512H42.5988L43.2421 16.8031C43.6058 16.6883 44.0546 16.6032 44.6636 16.6032C46.0582 16.6032 46.4088 17.4017 46.2752 18.343H46.2752ZM45.1061 13.9217C42.2016 13.9217 39.6958 14.3759 37.9663 15.0919L37.1161 20.9818L37.1005 20.9869L36.6162 24.516C36.186 27.5187 37.8536 29.4309 42.8341 29.5247L42.8338 29.535H48.8871L48.9965 28.8208V28.8164C49.1065 28.1009 48.8426 27.5246 47.979 27.5246H43.5656C42.1707 27.5246 41.8201 26.7247 41.9559 25.7848L42.1377 24.4798H43.8698V24.4548C48.9326 24.3918 51.1781 22.491 51.622 19.4905L51.709 18.9424H51.6793L51.7106 18.9274C52.1444 15.8539 50.3865 13.9217 45.1062 13.9217" fill="#231F20"/>
<path d="M35.0587 28.8163C35.1669 28.1009 34.9048 27.6023 34.0397 27.6023H33.3952C31.9999 27.6023 31.6494 26.8061 31.7834 25.8632L32.9513 17.6608L32.9666 17.5538L33.045 17.0124H34.5237C34.5591 16.9981 34.6028 16.9904 34.6607 16.9904C35.4814 16.9904 36.1389 16.1897 36.3128 14.9797H33.3334L34.1969 8.90936C30.2372 9.33165 28.4114 11.1404 28.0153 13.8259L27.5482 16.8539L27.5442 16.8595L27.5042 17.1495L27.4729 17.3519L27.4741 17.3535L26.4455 24.595C26.0153 27.5981 27.6765 29.5174 32.6631 29.6099V29.6143H34.9431L35.0586 28.8195V28.8163" fill="#231F20"/>
<path d="M86.089 13.9532C84.2568 13.9532 82.5821 14.1354 81.1628 14.4474C80.1795 14.1259 78.9208 13.9532 77.3482 13.9532C74.4432 13.9532 71.9368 14.4096 70.2072 15.1229L68.6802 25.7722L70.9208 29.6141H73.6503L75.482 16.8346C75.8471 16.7209 76.2954 16.6352 76.9069 16.6352C78.0934 16.6352 78.5216 17.2162 78.5408 17.9688L76.8702 29.6141H82.4261L83.9517 18.9733C83.9822 18.7503 84.0022 18.5366 84.0091 18.3255L84.2231 16.8346C84.5886 16.7209 85.036 16.6352 85.6455 16.6352C87.041 16.6352 87.3904 17.434 87.2566 18.3738L85.6455 29.6141H91.168L92.6943 18.9733C93.134 15.8939 91.3782 13.9532 86.089 13.9532Z" fill="#EE1D23"/>
<path d="M62.3508 18.3445L62.272 18.9223H62.2444L62.0694 20.069C61.93 21.0067 61.345 21.7974 59.9454 21.7938H58.5864L58.6637 21.253H58.675L59.3179 16.8053C59.6838 16.6901 60.1296 16.604 60.7405 16.604C62.1358 16.604 62.4868 17.4032 62.3508 18.3445H62.3508ZM64.5929 23.6099C66.4651 22.7674 67.4255 21.3374 67.6984 19.4916L67.7846 18.9432H67.754L67.7869 18.9297L67.7847 18.9432C68.2255 15.8631 66.4714 13.9231 61.1828 13.9231C58.2764 13.9231 55.7715 14.3787 54.0408 15.0925L54.0381 15.1252H54.0206L51.9458 29.6141H57.4658L58.2036 24.4633H59.6213L59.6138 24.466L70.0477 38.3901C70.7331 39.3037 71.5967 39.9836 72.7057 39.9836H74.1809L64.5932 23.6098" fill="#231F20"/>
<path d="M138.138 27.6067L138.268 26.6786C136.937 26.9776 135.383 27.1616 133.677 27.1889C133.544 27.1983 133.4 27.2035 133.248 27.2035C131.855 27.2035 131.505 26.4043 131.638 25.4629L132.092 22.1361L132.227 21.1882L132.718 17.8618C132.851 16.9203 133.428 16.1198 134.824 16.1198C134.977 16.1198 135.114 16.126 135.249 16.1358C137.067 16.1638 138.492 16.3074 139.679 16.6066L139.811 15.6501V15.6474C139.922 14.853 140.007 14.2045 138.903 14.0029C137.831 13.8266 136.582 13.7423 135.096 13.7423C129.816 13.7423 127.51 15.676 127.074 18.748L127.092 18.7579L127.071 18.763L126.246 24.5759H126.248C125.814 27.6475 127.572 29.5823 132.849 29.5823C134.348 29.5823 135.735 29.4585 136.968 29.2444C137.564 29.1029 137.971 28.8397 138.139 27.6065" fill="#EE1D23"/>
<path d="M102.54 22.7101L101.898 27.158C101.531 27.2738 101.083 27.3589 100.475 27.3589C99.0792 27.3589 98.7273 26.5605 98.8627 25.619L98.9423 25.0402H98.9713L99.1472 23.8939C99.2856 22.9584 99.8706 22.1632 101.269 22.1695H102.625L102.549 22.7101H102.54ZM102.359 13.9774L102.361 13.9682H97.6507C96.8309 13.9682 96.1726 14.7674 95.9998 15.979H101.626C103.023 15.979 103.375 16.8301 103.24 17.7737L102.998 19.499H101.163V19.5088C96.1742 19.5982 93.9573 21.4917 93.5154 24.4698L93.4305 25.0198C93.4296 25.0248 93.4288 25.0298 93.4282 25.0347C92.9932 28.1067 94.7504 30.0393 100.031 30.0393C102.937 30.0393 105.442 29.5833 107.173 28.8707L108.021 22.9796L108.039 22.9745L108.575 19.0426C109.007 16.0403 107.339 14.0731 102.359 13.9774" fill="#EE1D23"/>
</g>
<path d="M184.424 26.7399L187.342 29.6573L188.449 28.5505L185.531 25.6331L188.585 22.579L187.479 21.4722L184.424 24.5262L181.507 21.6088L180.4 22.7157L183.318 25.6331L180.188 28.7623L181.295 29.8691L184.424 26.7399Z" fill="#A6B0C5"/>
<path d="M215.407 29.1879H223.023L228.725 8.77692H221.11L215.407 29.1879V29.1879Z" fill="#7258FF"/>
<path d="M211.536 29.1887L203.921 29.1845L198.228 8.77023L205.844 8.77441L211.536 29.1887V29.1887Z" fill="#333333"/>
<path d="M223.056 29.1945L215.441 29.1903L209.749 8.77606L217.364 8.78024L223.056 29.1945V29.1945Z" fill="#333333"/>
<path fill-rule="evenodd" clip-rule="evenodd" d="M238.524 3.76474C238.524 1.6273 236.778 0 234.503 0C232.229 0 230.484 1.6273 230.484 3.76474C230.484 5.88299 232.228 7.53032 234.503 7.53032C236.778 7.53032 238.524 5.88299 238.524 3.76474ZM238.13 8.96141H230.874V29.278H238.13V8.96141Z" fill="#333333"/>
<path d="M253.919 15.3153C253.025 14.993 252.084 14.8209 251.134 14.806C249.565 14.806 247.996 15.9432 247.996 18.453V29.278H240.741V8.96143H247.996V11.0212C249.271 9.41313 251.056 8.49136 253.331 8.49136C253.723 8.48925 254.113 8.5487 254.487 8.66753L253.919 15.3153Z" fill="#333333"/>
<path d="M274.312 8.96142C274.312 14.1589 273.077 17.5513 270.743 19.4341L275.335 29.278H267.571L264.257 21.3945H262.801V29.278H255.545V0.647095H262.801V15.175H263.782C265.409 15.175 267.056 14.0963 267.056 8.95809L274.312 8.96142Z" fill="#333333"/>
<defs>
<radialGradient id="paint0_radial_3_3792" cx="0" cy="0" r="1" gradientUnits="userSpaceOnUse" gradientTransform="translate(157.218 36.0013) scale(76.0574 3.91856)">
<stop stop-color="#6B6B6D"/>
<stop offset="1" stop-color="#231F20"/>
</radialGradient>
<clipPath id="clip0_3_3792">
<rect width="172" height="33" fill="white" transform="translate(0.771973 8.08435)"/>
</clipPath>
</defs>
</svg>
