<svg width="61" height="49" viewBox="0 0 61 49" fill="none" xmlns="http://www.w3.org/2000/svg">
<path d="M13.3862 32.4667H19.3203L23.7639 16.562H17.8298L13.3862 32.4667Z" fill="#7258FF"/>
<path d="M10.37 32.4673L4.43581 32.4641L0 16.5568L5.93414 16.5601L10.37 32.4673Z" fill="#A6B0C5"/>
<path d="M19.347 32.4719L13.4128 32.4686L8.97766 16.5614L14.9112 16.5646L19.347 32.4719Z" fill="#A6B0C5"/>
<path fill-rule="evenodd" clip-rule="evenodd" d="M31.3994 12.6565C31.3994 10.9909 30.0396 9.7229 28.2667 9.7229C26.4945 9.7229 25.1347 10.9909 25.1347 12.6565C25.1347 14.307 26.4938 15.5907 28.2667 15.5907C30.0396 15.5907 31.3994 14.307 31.3994 12.6565ZM31.0923 16.7058H25.4386V32.5369H31.0923V16.7058Z" fill="#A6B0C5"/>
<path d="M43.3952 21.6569C42.6988 21.4058 41.9656 21.2717 41.2254 21.26C40.0029 21.26 38.7804 22.1461 38.7804 24.1019V32.5369H33.1267V16.7058H38.7804V18.3108C39.7739 17.0578 41.1643 16.3395 42.9371 16.3395C43.2428 16.3379 43.5469 16.3842 43.8382 16.4768L43.3952 21.6569Z" fill="#A6B0C5"/>
<path d="M59.2861 16.7058C59.2861 20.7558 58.3239 23.3992 56.5055 24.8663L60.0838 32.5369H54.0332L51.4509 26.3939H50.3169V32.5369H44.6625V10.2271H50.3169V21.5476H51.0807C52.3488 21.5476 53.6324 20.707 53.6324 16.7032L59.2861 16.7058Z" fill="#A6B0C5"/>
<path d="M6.08003 4.048V5.744C6.08003 5.91467 5.9947 6 5.82403 6H5.20003C5.02936 6 4.94403 5.91467 4.94403 5.744V0.656C4.94403 0.485333 5.02936 0.4 5.20003 0.4H6.92403C7.51603 0.4 7.98936 0.568 8.34403 0.904C8.70136 1.24 8.88003 1.68 8.88003 2.224C8.88003 2.77067 8.70136 3.212 8.34403 3.548C7.98936 3.88133 7.51603 4.048 6.92403 4.048H6.08003ZM7.74403 2.224C7.74403 1.952 7.66403 1.736 7.50403 1.576C7.3467 1.416 7.1227 1.336 6.83203 1.336H6.08003V3.112H6.83203C7.1227 3.112 7.3467 3.03333 7.50403 2.876C7.66403 2.716 7.74403 2.49867 7.74403 2.224ZM9.82891 4.668C9.56757 4.22533 9.43691 3.736 9.43691 3.2C9.43691 2.664 9.56757 2.17467 9.82891 1.732C10.0929 1.28933 10.4542 0.941333 10.9129 0.688C11.3742 0.432 11.8836 0.304 12.4409 0.304C12.9982 0.304 13.5062 0.432 13.9649 0.688C14.4262 0.941333 14.7876 1.28933 15.0489 1.732C15.3129 2.17467 15.4449 2.664 15.4449 3.2C15.4449 3.736 15.3129 4.22533 15.0489 4.668C14.7876 5.11067 14.4262 5.46 13.9649 5.716C13.5062 5.96933 12.9982 6.096 12.4409 6.096C11.8836 6.096 11.3742 5.96933 10.9129 5.716C10.4542 5.46 10.0929 5.11067 9.82891 4.668ZM11.1209 1.844C10.7636 2.20933 10.5849 2.66133 10.5849 3.2C10.5849 3.73867 10.7636 4.19067 11.1209 4.556C11.4782 4.92133 11.9182 5.104 12.4409 5.104C12.9636 5.104 13.4036 4.92133 13.7609 4.556C14.1182 4.19067 14.2969 3.73867 14.2969 3.2C14.2969 2.66133 14.1182 2.20933 13.7609 1.844C13.4036 1.47867 12.9636 1.296 12.4409 1.296C11.9182 1.296 11.4782 1.47867 11.1209 1.844ZM19.8697 0.4C20.0217 0.4 20.1177 0.473333 20.1577 0.62L21.1737 4.416L22.1057 0.62C22.1403 0.473333 22.235 0.4 22.3897 0.4H23.0497C23.1403 0.4 23.2043 0.425333 23.2417 0.476C23.2817 0.526666 23.2897 0.597333 23.2657 0.688L21.8537 5.784C21.8137 5.928 21.719 6 21.5697 6H20.8777C20.7283 6 20.6337 5.928 20.5937 5.784L19.5377 1.948L18.4817 5.784C18.4417 5.928 18.347 6 18.1977 6H17.5057C17.3563 6 17.2617 5.928 17.2217 5.784L15.8097 0.688C15.7857 0.597333 15.7923 0.526666 15.8297 0.476C15.8697 0.425333 15.935 0.4 16.0257 0.4H16.6857C16.8403 0.4 16.935 0.473333 16.9697 0.62L17.9017 4.416L18.9177 0.62C18.9577 0.473333 19.0537 0.4 19.2057 0.4H19.8697ZM24.0925 0.656C24.0925 0.485333 24.1778 0.4 24.3485 0.4H27.3245C27.4951 0.4 27.5805 0.485333 27.5805 0.656V1.112C27.5805 1.28267 27.4951 1.368 27.3245 1.368H25.2285V2.704H27.1325C27.3031 2.704 27.3885 2.78933 27.3885 2.96V3.408C27.3885 3.57867 27.3031 3.664 27.1325 3.664H25.2285V5.032H27.3965C27.5671 5.032 27.6525 5.11733 27.6525 5.288V5.744C27.6525 5.91467 27.5671 6 27.3965 6H24.3485C24.1778 6 24.0925 5.91467 24.0925 5.744V0.656ZM30.6584 0.4C31.2531 0.4 31.7277 0.565333 32.0824 0.896C32.4371 1.224 32.6144 1.66 32.6144 2.204C32.6144 2.62267 32.5064 2.98 32.2904 3.276C32.0744 3.56933 31.7744 3.77333 31.3904 3.888L32.5464 5.692C32.6024 5.78 32.6144 5.85333 32.5824 5.912C32.5504 5.97067 32.4824 6 32.3784 6H31.7064C31.5704 6 31.4677 5.944 31.3984 5.832L30.2504 4.008H29.8064V5.744C29.8064 5.91467 29.7211 6 29.5504 6H28.9344C28.7637 6 28.6784 5.91467 28.6784 5.744V0.656C28.6784 0.485333 28.7637 0.4 28.9344 0.4H30.6584ZM29.8064 1.336V3.1H30.5704C30.8584 3.1 31.0811 3.02 31.2384 2.86C31.3984 2.7 31.4784 2.48667 31.4784 2.22C31.4784 1.948 31.3984 1.73333 31.2384 1.576C31.0811 1.416 30.8584 1.336 30.5704 1.336H29.8064ZM33.5847 0.656C33.5847 0.485333 33.67 0.4 33.8407 0.4H36.8167C36.9873 0.4 37.0727 0.485333 37.0727 0.656V1.112C37.0727 1.28267 36.9873 1.368 36.8167 1.368H34.7207V2.704H36.6247C36.7953 2.704 36.8807 2.78933 36.8807 2.96V3.408C36.8807 3.57867 36.7953 3.664 36.6247 3.664H34.7207V5.032H36.8887C37.0593 5.032 37.1447 5.11733 37.1447 5.288V5.744C37.1447 5.91467 37.0593 6 36.8887 6H33.8407C33.67 6 33.5847 5.91467 33.5847 5.744V0.656ZM40.1986 0.4C41.0519 0.4 41.7333 0.653333 42.2426 1.16C42.7519 1.66667 43.0066 2.34667 43.0066 3.2C43.0066 4.05333 42.7519 4.73333 42.2426 5.24C41.7333 5.74667 41.0519 6 40.1986 6H38.4266C38.2559 6 38.1706 5.91467 38.1706 5.744V0.656C38.1706 0.485333 38.2559 0.4 38.4266 0.4H40.1986ZM39.3066 1.392V5.008H40.1586C40.6786 5.008 41.0919 4.856 41.3986 4.552C41.7053 4.24533 41.8586 3.79467 41.8586 3.2C41.8586 2.60533 41.7053 2.156 41.3986 1.852C41.0919 1.54533 40.6786 1.392 40.1586 1.392H39.3066ZM46.5985 6C46.4278 6 46.3425 5.91467 46.3425 5.744V0.656C46.3425 0.485333 46.4278 0.4 46.5985 0.4H48.4505C48.9678 0.4 49.3731 0.536 49.6665 0.808C49.9598 1.08 50.1065 1.44933 50.1065 1.916C50.1065 2.18267 50.0451 2.412 49.9225 2.604C49.8025 2.796 49.6385 2.93733 49.4305 3.028C49.7131 3.10533 49.9465 3.264 50.1305 3.504C50.3145 3.74133 50.4065 4.02933 50.4065 4.368C50.4065 4.85067 50.2531 5.244 49.9465 5.548C49.6398 5.84933 49.2331 6 48.7265 6H46.5985ZM49.0025 2.004C49.0025 1.79067 48.9438 1.62667 48.8265 1.512C48.7118 1.39733 48.5571 1.34 48.3625 1.34H47.4585V2.664H48.3625C48.5545 2.664 48.7091 2.60667 48.8265 2.492C48.9438 2.37733 49.0025 2.21467 49.0025 2.004ZM49.2705 4.316C49.2705 4.08933 49.2078 3.908 49.0825 3.772C48.9571 3.636 48.7931 3.568 48.5905 3.568H47.4585V5.06H48.5905C48.7931 5.06 48.9571 4.992 49.0825 4.856C49.2078 4.72 49.2705 4.54 49.2705 4.316ZM53.061 2.664L54.209 0.58C54.2757 0.46 54.377 0.4 54.513 0.4H55.181C55.2824 0.4 55.349 0.429333 55.381 0.488C55.4157 0.544 55.4077 0.617333 55.357 0.708L53.629 3.744V5.744C53.629 5.91467 53.5437 6 53.373 6H52.749C52.5784 6 52.493 5.91467 52.493 5.744V3.744L50.765 0.708C50.7144 0.617333 50.705 0.544 50.737 0.488C50.7717 0.429333 50.8397 0.4 50.941 0.4H51.609C51.745 0.4 51.8464 0.46 51.913 0.58L53.061 2.664Z" fill="#A6B0C5"/>
</svg>
